<?xml version="1.0" encoding="utf-8"?>
<svg viewBox="0 0 400 200" xmlns="http://www.w3.org/2000/svg">
	<g transform="matrix(2.1814160346984863, -0.03385999798774719, 0.08558100461959839, 2.0328691005706787, -53.67305374145508, -16.754163742065458)" style="">
		<g>
			<path d="M126.79,65.88c0,5.91-2.82,8.87-8.47,8.87s-8.22-2.89-8.22-8.66v-11.36h4.56v11.42c0,3.18,1.28,4.78,3.83,4.78s3.76-1.54,3.76-4.61v-11.58h4.55v11.16Z" style="fill: rgb(250, 250, 250);" />
			<path d="M144.85,73.71c-1.47,.7-3.4,1.04-5.77,1.04-3.1,0-5.53-.89-7.31-2.66-1.77-1.77-2.66-4.14-2.66-7.1,0-3.15,1-5.7,2.99-7.66,1.99-1.96,4.58-2.94,7.76-2.94,1.97,0,3.63,.24,4.98,.73v4.27c-1.35-.79-2.89-1.18-4.62-1.18-1.9,0-3.43,.58-4.59,1.74-1.16,1.16-1.75,2.74-1.75,4.72s.55,3.42,1.65,4.55c1.1,1.13,2.58,1.7,4.43,1.7s3.4-.42,4.87-1.26v4.05Z" style="fill: rgb(250, 250, 250);" />
			<path d="M184.38,65.88c0,5.91-2.82,8.87-8.47,8.87s-8.22-2.89-8.22-8.66v-11.36h4.56v11.42c0,3.18,1.28,4.78,3.83,4.78s3.76-1.54,3.76-4.61v-11.58h4.55v11.16Z" style="fill: rgb(250, 250, 250);" />
			<path d="M186.95,73.65v-4.39c.82,.67,1.7,1.17,2.66,1.5,.96,.33,1.92,.5,2.9,.5,.57,0,1.07-.05,1.5-.15,.43-.1,.78-.24,1.07-.42,.29-.18,.5-.39,.64-.63,.14-.24,.21-.51,.21-.79,0-.38-.11-.73-.34-1.03s-.53-.58-.92-.84c-.39-.26-.85-.5-1.39-.74-.53-.24-1.11-.48-1.73-.73-1.58-.64-2.75-1.42-3.53-2.35-.77-.92-1.16-2.04-1.16-3.35,0-1.02,.21-1.91,.63-2.64,.42-.74,1-1.34,1.72-1.82,.73-.48,1.57-.83,2.53-1.05,.96-.22,1.97-.34,3.04-.34s1.98,.06,2.79,.19c.81,.12,1.56,.31,2.25,.57v4.1c-.34-.23-.71-.43-1.1-.6-.4-.17-.81-.32-1.23-.43-.42-.11-.84-.2-1.26-.25-.42-.05-.81-.08-1.19-.08-.52,0-.99,.05-1.41,.14-.42,.1-.78,.23-1.07,.41-.29,.17-.52,.38-.68,.62-.16,.24-.24,.51-.24,.82,0,.33,.09,.62,.27,.89,.18,.26,.43,.51,.76,.74,.33,.23,.73,.46,1.2,.69,.47,.22,1,.46,1.59,.69,.81,.33,1.53,.68,2.17,1.05,.64,.37,1.19,.79,1.65,1.26,.46,.47,.81,1,1.06,1.6,.24,.6,.37,1.3,.37,2.09,0,1.1-.21,2.02-.64,2.77-.43,.75-1.01,1.35-1.74,1.81-.73,.46-1.58,.79-2.55,1s-2,.3-3.08,.3-2.16-.09-3.16-.27c-1-.18-1.87-.46-2.6-.82Z" style="fill: rgb(250, 250, 250);" />
			<path d="M152.58,74.41h-4.55v-19.68h4.55v19.68Z" style="fill: rgb(250, 250, 250);" />
		</g>
		<polygon points="154.37 65.86 161.41 74.41 167.15 74.41 158.35 64.11 165.39 54.73 159.97 54.73 154.4 62.93 154.37 65.86" style="fill: rgb(250, 250, 250);" />
		<path d="M103.53,66.75c.55-.26,1.06-.58,1.51-.96,1.46-1.22,2.19-2.82,2.19-4.8,0-4.18-2.54-6.27-7.63-6.27h-9.39v19.68h4.55v-16.28h4.06c2.42,0,3.63,1.01,3.63,3.03s-1.21,3.1-3.63,3.1v.02h-2.57l8.08,10.12h5.74l-6.54-7.66Z" style="fill: rgb(250, 250, 250);" />
	</g>
	<line class="c" x1="52.887" y1="127.405" x2="52.863" y2="127.428" style="fill: rgb(250, 250, 250); transform-origin: 53.724px 127.404px;" transform="matrix(1, 1e-12, 0, 1.000000000002, 0, -2.06e-10)" />
	<g transform="matrix(2.1814160346984863, -0.03385999798774719, 0.08558100461959839, 2.0328691005706787, -53.67305374145508, -16.754163742065458)" style="">
		<path d="M85.33,37.38l-1.24-1.57-6.72,2.87-2.83-1.92-4.54,.98-4.98,2.22-1.29,2.87,2.39,2.82,1.83,.54,4.83-5.02-4.27,6.97-3.29-1.06-.76-1.1-5.52,6.84-17.18,4.52c-.6,0-1.48,.02-1.48,.02-15.92-6.82-6.77-15.96-6.68-16.06-.11,.06-13.06,6.6,1.58,18.65l-2.74,3.11-1.94,8.79-4.92,3.91-5.39,11.71h5.12l.84-1.98-1.98-.49,3.23-5.62c1.68-.9,7.7-3.32,8.88-4.14l8-10.05,8.95,2.82,1.26-5.56,.44,.93,.69,7.93-3.78,16.95h5.35v-1.73l-2-.84,6.51-14.61s9.9-6.3,9.89-6.36c-.03-.16,4.8-15.03,4.8-15.03l5.98-.51,1.75-2.41-7.09,.02,8.22-6.06,.08-3.31Z" style="fill: rgb(250, 250, 250);" />
		<g>
			<polygon points="63.33 71.98 69.84 67.85 62.8 84.26 64.81 85.03 64.81 86.67 60.1 86.68 63.33 71.98" style="fill: rgb(250, 250, 250);" />
			<path d="M46.91,75.68l-7.44,3.78-2.74,4.84,2.08,.58-.84,1.78h-4.59l3.57-9.49c.34-.21,4.12-3.58,4.12-3.58l.32-2.14,3.48-4.37,5.17,1.64-3.13,6.96Z" style="fill: rgb(250, 250, 250);" />
			<polygon class="b" points="75.1 56.36 60.17 50.75 61.66 48.89 75.73 53.94 75.1 56.36" style="fill: rgb(250, 250, 250);" />
		</g>
	</g>
	<path class="c" d="M 186.293 143.607 C 186.393 145.927 184.462 147.767 181.864 147.805 C 179.274 147.847 177.166 146.07 177.068 143.752 C 176.97 141.434 178.949 139.634 181.522 139.592 C 184.098 139.554 186.2 141.331 186.293 143.607 Z M 178.226 143.734 C 178.302 145.542 179.846 146.964 181.871 146.932 C 183.901 146.901 185.239 145.436 185.161 143.646 C 185.088 141.858 183.561 140.376 181.577 140.407 C 179.592 140.437 178.172 141.924 178.247 143.713 L 178.226 143.734 Z M 181.084 145.824 L 180.037 145.842 L 179.865 141.754 C 180.276 141.668 180.845 141.618 181.584 141.607 C 182.436 141.594 182.832 141.71 183.165 141.887 C 183.417 142.066 183.626 142.389 183.641 142.776 C 183.658 143.221 183.281 143.574 182.745 143.744 L 182.747 143.786 C 183.186 143.921 183.44 144.223 183.615 144.769 C 183.774 145.398 183.867 145.64 183.988 145.78 L 182.871 145.798 C 182.737 145.658 182.635 145.271 182.482 144.807 C 182.375 144.361 182.106 144.161 181.518 144.171 L 181.015 144.18 L 181.084 145.824 Z M 181.009 143.508 L 181.508 143.5 C 182.077 143.491 182.55 143.301 182.533 142.894 C 182.516 142.529 182.2 142.267 181.546 142.277 C 181.262 142.284 181.089 142.305 180.979 142.328 L 181.029 143.508 L 181.009 143.508 Z" style="fill: rgb(250, 250, 250); transform-origin: 181.623px 143.702px;" transform="matrix(1, 0, 0, 1, 0, -1e-12)" />
	<g transform="matrix(2.1814160346984863, -0.03385999798774719, 0.08558100461959839, 2.0328691005706787, -53.67305374145508, -16.754163742065458)" style="">
		<polygon class="b" points="90.29 37.21 90.29 46.76 94.86 46.76 94.86 33.92 90.29 37.21" style="fill: rgb(250, 250, 250);" />
		<polygon class="b" points="100.07 30.17 100.07 46.76 104.64 46.76 104.64 26.88 100.07 30.17" style="fill: rgb(250, 250, 250);" />
		<polygon class="b" points="110.1 22.95 110.1 46.76 114.67 46.76 114.67 19.66 110.1 22.95" style="fill: rgb(250, 250, 250);" />
	</g>
	<g transform="matrix(2.1814160346984863, -0.03385999798774719, 0.08558100461959839, 2.0328691005706787, -53.67305374145508, -16.754163742065458)" style="">
		<path class="b" d="M95.49,88.92c-.54,.26-1.25,.39-2.12,.39-1.14,0-2.03-.33-2.69-1s-.98-1.56-.98-2.68c0-1.19,.37-2.15,1.1-2.89,.73-.74,1.68-1.11,2.86-1.11,.72,0,1.34,.09,1.83,.27v1.61c-.5-.3-1.06-.45-1.7-.45-.7,0-1.26,.22-1.69,.66s-.64,1.03-.64,1.78,.2,1.29,.61,1.72,.95,.64,1.63,.64,1.25-.16,1.79-.48v1.53Z" style="fill: rgb(250, 250, 250);" />
		<path class="b" d="M100.96,89.32c-1.06,0-1.93-.35-2.6-1.04s-1-1.59-1-2.71c0-1.17,.34-2.12,1.02-2.85s1.58-1.09,2.7-1.09c1.06,0,1.92,.35,2.57,1.04,.65,.69,.98,1.61,.98,2.74s-.34,2.11-1.02,2.82c-.68,.71-1.56,1.07-2.65,1.07Zm.07-6.24c-.59,0-1.05,.22-1.4,.66s-.52,1.02-.52,1.75,.17,1.32,.52,1.74,.8,.64,1.36,.64,1.03-.21,1.37-.62,.51-.99,.51-1.73-.16-1.37-.49-1.8-.78-.64-1.35-.64Z" style="fill: rgb(250, 250, 250);" />
		<path class="b" d="M115.49,89.19h-1.65v-4.44c0-.48,.02-1.01,.06-1.59h-.04c-.09,.46-.16,.78-.23,.98l-1.74,5.05h-1.37l-1.77-5c-.05-.13-.13-.48-.23-1.04h-.05c.05,.73,.07,1.37,.07,1.93v4.11h-1.51v-7.42h2.45l1.52,4.4c.12,.35,.21,.71,.26,1.06h.03c.09-.41,.19-.77,.3-1.07l1.52-4.39h2.39v7.42Z" style="fill: rgb(250, 250, 250);" />
		<path class="b" d="M126.8,89.19h-1.65v-4.44c0-.48,.02-1.01,.06-1.59h-.04c-.09,.46-.16,.78-.23,.98l-1.74,5.05h-1.37l-1.77-5c-.05-.13-.13-.48-.23-1.04h-.05c.05,.73,.07,1.37,.07,1.93v4.11h-1.51v-7.42h2.45l1.52,4.4c.12,.35,.21,.71,.26,1.06h.03c.09-.41,.19-.77,.3-1.07l1.52-4.39h2.39v7.42Z" style="fill: rgb(250, 250, 250);" />
		<path class="b" d="M129.32,88.9v-1.66c.3,.25,.63,.44,.98,.57s.71,.19,1.07,.19c.21,0,.39-.02,.55-.06,.16-.04,.29-.09,.39-.16,.11-.07,.18-.15,.24-.24s.08-.19,.08-.3c0-.14-.04-.27-.12-.39s-.2-.22-.34-.32c-.14-.1-.31-.19-.51-.28s-.41-.18-.64-.27c-.58-.24-1.01-.54-1.3-.89-.29-.35-.43-.77-.43-1.26,0-.39,.08-.72,.23-1s.37-.51,.63-.69c.27-.18,.58-.31,.93-.4s.72-.13,1.12-.13,.73,.02,1.03,.07c.3,.05,.57,.12,.83,.21v1.55c-.12-.09-.26-.16-.41-.23-.15-.07-.3-.12-.45-.16s-.31-.08-.46-.1c-.15-.02-.3-.03-.44-.03-.19,0-.36,.02-.52,.05s-.29,.09-.39,.15-.19,.14-.25,.24-.09,.19-.09,.31c0,.12,.03,.24,.1,.33s.16,.19,.28,.28,.27,.17,.44,.26,.37,.17,.59,.26c.3,.12,.56,.26,.8,.4,.24,.14,.44,.3,.61,.47s.3,.38,.39,.6,.13,.49,.13,.79c0,.41-.08,.76-.24,1.04-.16,.28-.37,.51-.64,.68s-.58,.3-.94,.38c-.36,.08-.73,.11-1.13,.11s-.8-.03-1.16-.1c-.37-.07-.69-.17-.96-.31Z" style="fill: rgb(250, 250, 250);" />
		<path class="b" d="M142.09,88.92c-.54,.26-1.25,.39-2.12,.39-1.14,0-2.03-.33-2.69-1s-.98-1.56-.98-2.68c0-1.19,.37-2.15,1.1-2.89,.73-.74,1.68-1.11,2.86-1.11,.72,0,1.34,.09,1.83,.27v1.61c-.5-.3-1.06-.45-1.7-.45-.7,0-1.26,.22-1.69,.66s-.64,1.03-.64,1.78,.2,1.29,.61,1.72,.95,.64,1.63,.64,1.25-.16,1.79-.48v1.53Z" style="fill: rgb(250, 250, 250);" />
		<path class="b" d="M147.56,89.32c-1.06,0-1.93-.35-2.6-1.04s-1-1.59-1-2.71c0-1.17,.34-2.12,1.02-2.85s1.58-1.09,2.7-1.09c1.06,0,1.92,.35,2.57,1.04,.65,.69,.98,1.61,.98,2.74s-.34,2.11-1.02,2.82c-.68,.71-1.56,1.07-2.65,1.07Zm.07-6.24c-.59,0-1.05,.22-1.4,.66s-.52,1.02-.52,1.75,.17,1.32,.52,1.74,.8,.64,1.36,.64,1.03-.21,1.37-.62,.51-.99,.51-1.73-.16-1.37-.49-1.8-.78-.64-1.35-.64Z" style="fill: rgb(250, 250, 250);" />
		<path class="b" d="M155.3,86.63v2.56h-1.67v-7.42h2.62c1.87,0,2.81,.79,2.81,2.37,0,.75-.27,1.35-.8,1.81-.54,.46-1.25,.69-2.15,.69h-.8Zm0-3.58v2.31h.66c.89,0,1.34-.39,1.34-1.17s-.45-1.14-1.34-1.14h-.66Z" style="fill: rgb(250, 250, 250);" />
		<path class="b" d="M165.76,89.19h-4.45v-7.42h4.28v1.36h-2.61v1.65h2.43v1.36h-2.43v1.7h2.78v1.36Z" style="fill: rgb(250, 250, 250);" />
	</g>
</svg>
