<?xml version="1.0" encoding="utf-8"?>
<svg viewBox="0 0 1122.521 793.707" xmlns="http://www.w3.org/2000/svg">
	<g transform="matrix(1.3333300352096558, 0, 0, -1.3333300352096558, 0, 793.7069702148438)">
		<g>
			<g clippath="url(#clipPath16)">
				<g transform="translate(56.305 385.537)">
					<path fillopacity="1" fillrule="evenodd" stroke="none" d="M0 0h232.351v-97.799c0-16.957 14.613-26.711 30.632-26.711 26.629 0 35.555 13.121 35.555 26.711V.158H412.25l83.667-96.488V.158h232.752v-51.263H615.917v-53.104c0-9.937 12.838-19.789 29.066-19.789 23.966 0 33.712 11.98 33.712 20.156v8.735h-25.468v18.863h75.375l-.057-63.754s.843-14.52-7.879-24.986c-12.059-14.473-28.579-12.08-29.417-12.08H583.648s-14.69.119-20.092 2.751c-5.323 2.594-8.203 6.245-8.203 6.245v-8.996h-68.414l-69.135 79.265v-79.265h-58.865v9.337s-1.886-3.119-6.777-5.494c-4.891-2.377-17.467-3.599-18.934-3.599-1.467 0-6.289-.244-6.289-.244H197.717s-10.935.664-16.734 4.087c-5.799 3.424-10.445 7.756-10.445 7.756s-3.179-3.668-8.489-6.777c-5.311-3.109-17.398-5.066-17.398-5.066H36.25c-7.367 0-16.848 1.363-25.958 10.472C2.847-159.146.162-150.5.162-141.221v64.977h49.624v-31.266c0-6.045 3.565-16.787 30.947-16.787 21.188 0 29.445 5.94 29.445 17.033v56.159H0zm564.995-19.148v-122.795c0-3.612 2.146-7.178 4.03-9.922 4.286-6.244 14.623-6.438 14.623-6.438h108.263s10.167 2.582 13.834 5.11c3.667 2.529 3.611 9.445 3.611 9.445v48.723h-12.028v-8.362c0-23.672-24.348-39.638-50.889-39.638-27.987 0-49.444 16.162-49.444 40v71.098h112.451v12.779zm-196.918.179v-139.045h30.819v93.168h15.057l81.887-93.404h50.101v139.044h-30.885v-109.107h-16.71L403.658-18.969zm-188.072-.296v-122.376c0-4.576 1.956-7.58 6.044-12.158 4.087-4.576 12.401-4.576 12.401-4.576l133.066.244s7.266-.488 12.401 5.067c5.136 5.554 4.821 13.798 4.821 13.798v120.245h-31.51v-82.446s-2.203-41.887-52.088-41.887c-34.461 0-51.912 23.485-51.912 43.11v80.979zm-160.978.489v-13.066h110.255v-75.129c0-7.679-1.634-36.383-48.142-36.383-48.586 0-50.363 29.801-50.445 36.088l-.155 11.912H19.271v-44.156c0-4.47.502-9.191 3.372-12.47 3.839-4.387 8.184-6.151 13.851-6.151h107.913s8-.244 13.065 7.024c5.066 7.265 3.424 11.841 3.424 11.841v120.49z" style="fill: rgb(250, 250, 250);" />
				</g>
			</g>
		</g>
	</g>
</svg>
